<?xml version="1.0" encoding="UTF-8" standalone="no"?>
<!-- Created with Inkscape (http://www.inkscape.org/) -->

<svg
   xmlns:dc="http://purl.org/dc/elements/1.1/"
   xmlns:cc="http://creativecommons.org/ns#"
   xmlns:rdf="http://www.w3.org/1999/02/22-rdf-syntax-ns#"
   xmlns:svg="http://www.w3.org/2000/svg"
   xmlns="http://www.w3.org/2000/svg"
   xmlns:sodipodi="http://sodipodi.sourceforge.net/DTD/sodipodi-0.dtd"
   xmlns:inkscape="http://www.inkscape.org/namespaces/inkscape"
   width="73.641052mm"
   height="22.394051mm"
   viewBox="0 0 73.641052 22.394051"
   version="1.1"
   id="svg8"
   inkscape:version="0.92.4 (5da689c313, 2019-01-14)"
   sodipodi:docname="vector_logo.svg">
  <defs
     id="defs2" />
  <sodipodi:namedview
     id="base"
     pagecolor="#ffffff"
     bordercolor="#666666"
     borderopacity="1.0"
     inkscape:pageopacity="0.0"
     inkscape:pageshadow="2"
     inkscape:zoom="1.979899"
     inkscape:cx="127.28548"
     inkscape:cy="53.041331"
     inkscape:document-units="mm"
     inkscape:current-layer="layer1"
     showgrid="false"
     showguides="true"
     inkscape:guide-bbox="true"
     inkscape:snap-text-baseline="false"
     inkscape:window-width="2560"
     inkscape:window-height="1377"
     inkscape:window-x="1912"
     inkscape:window-y="-8"
     inkscape:window-maximized="1"
     fit-margin-top="0"
     fit-margin-left="0"
     fit-margin-right="0"
     fit-margin-bottom="0" />
  <metadata
     id="metadata5">
    <rdf:RDF>
      <cc:Work
         rdf:about="">
        <dc:format>image/svg+xml</dc:format>
        <dc:type
           rdf:resource="http://purl.org/dc/dcmitype/StillImage" />
        <dc:title></dc:title>
      </cc:Work>
    </rdf:RDF>
  </metadata>
  <g
     inkscape:label="Layer 1"
     inkscape:groupmode="layer"
     id="layer1"
     transform="translate(-84.24602,-132.3914)">
    <g
       aria-label="the
market"
       style="font-style:normal;font-variant:normal;font-weight:normal;font-stretch:normal;font-size:10.58333302px;line-height:1.25;font-family:'Typo GeoSlab Regular Demo';-inkscape-font-specification:'Typo GeoSlab Regular Demo';letter-spacing:0px;word-spacing:0px;fill:#000000;fill-opacity:1;stroke:none;stroke-width:0.26458332"
       id="text12">
      <path
         d="m 110.0562,132.40902 -1.21474,1.05179 v 1.80729 h -0.97772 v 1.07401 h 0.97772 v 4.83674 c 0,0.76539 0.0494,1.27647 0.14814,1.53324 0.22221,0.55305 0.68884,0.82958 1.39991,0.82958 0.29628,0 0.38669,2.1e-4 0.87578,0 0.0129,-0.41232 0.006,-0.82362 -0.008,-1.23696 -1.19856,0 -1.19782,0.006 -1.20079,-1.05178 v -4.91081 h 1.19993 v -1.07401 h -1.19993 z"
         style="font-size:15.16944408px;line-height:0.25;letter-spacing:-1.13241673px;stroke-width:0.26458332"
         id="path51"
         inkscape:connector-curvature="0"
         sodipodi:nodetypes="ccccccscscccccccc" />
      <path
         d="m 120.0194,139.3123 q 0,-1.71841 -1.11104,-2.93315 -1.10364,-1.22215 -2.67391,-1.22215 -1.50362,0 -2.58503,1.11104 v -3.86643 h -2.47392 v 1.25178 h 1.25177 v 8.65132 h -1.25177 v 1.23696 h 3.72569 v -1.23696 h -1.25177 v -3.00722 q 0,-1.18512 0.75551,-2.05173 0.75551,-0.86661 1.82952,-0.86661 1.05178,0 1.80729,0.86661 0.75551,0.83699 0.75551,2.06654 v 2.99241 h -1.23696 v 1.23696 h 3.71089 v -1.23696 h -1.25178 z"
         style="font-size:15.16944408px;line-height:0.25;letter-spacing:-1.13241673px;stroke-width:0.26458332"
         id="path53"
         inkscape:connector-curvature="0" />
      <path
         d="m 127.55312,141.40106 q -0.24443,0.34813 -0.66662,0.59997 -0.70367,0.42219 -1.54806,0.42219 -1.04438,0 -1.85174,-0.66662 -0.77773,-0.66663 -0.99253,-1.67398 h 6.99217 v -0.62959 q 0,-1.74804 -1.21474,-2.99241 -1.20734,-1.23696 -2.93316,-1.23696 -1.72582,0 -2.94056,1.23696 -1.21474,1.24437 -1.21474,2.99241 0,1.74064 1.21474,2.99241 1.23696,1.23696 2.94056,1.23696 1.18511,0 2.15543,-0.60737 0.99993,-0.61477 1.53324,-1.67397 z m -5.05895,-2.57762 q 0.22221,-1.02216 0.99253,-1.68138 0.80736,-0.66662 1.85174,-0.66662 1.03698,0 1.84433,0.66662 0.79995,0.68885 0.99254,1.68138 z"
         style="font-size:15.16944408px;line-height:0.25;letter-spacing:-1.13241673px;stroke-width:0.26458332"
         id="path55"
         inkscape:connector-curvature="0" />
      <path
         d="m 117.58907,154.64472 v -1.22956 h -1.23696 v -2.97759 q 0,-1.19993 0.70366,-2.07395 0.68144,-0.84439 1.69619,-0.84439 1.01476,0 1.6962,0.84439 0.70366,0.87402 0.70366,2.07395 v 2.97019 h -1.274 v 1.23696 h 3.70348 v -1.23696 h -1.21474 v -2.97019 q 0,-1.71842 -1.05179,-2.94056 -1.05919,-1.19993 -2.56281,-1.19993 -0.93327,0 -1.73322,0.49627 -0.78514,0.51108 -1.274,1.35547 -0.49627,-0.85921 -1.29622,-1.35547 -0.79995,-0.49627 -1.711,-0.49627 -1.3851,0 -2.42208,1.03697 v -0.9629 h -2.4517 v 1.23696 h 1.23696 v 5.79965 h -1.23696 v 1.23696 h 3.71088 v -1.23696 h -1.25918 v -2.97019 q 0,-1.19993 0.70366,-2.07395 0.71107,-0.84439 1.71842,-0.84439 0.99253,0 1.67397,0.84439 0.72588,0.85921 0.72588,2.07395 v 2.97759 h -1.25178 v 1.22956 z"
         style="font-size:15.16944408px;line-height:0.25;letter-spacing:-1.13241673px;stroke-width:0.26458332"
         id="path57"
         inkscape:connector-curvature="0" />
      <path
         d="m 131.80387,146.37115 h -1.23697 v 1.12586 q -1.21474,-1.21474 -2.91093,-1.21474 -1.72582,0 -2.94056,1.23696 -1.21474,1.24437 -1.21474,2.99241 0,1.74063 1.21474,2.99241 1.23696,1.23696 2.94056,1.23696 1.69619,0 2.91093,-1.22215 v 1.12586 h 2.47393 v -1.23696 h -1.23696 z m -2.10358,6.24406 q -0.83699,0.86662 -2.04432,0.86662 -1.18511,0 -2.05173,-0.86662 -0.8518,-0.87402 -0.8518,-2.10357 0,-1.22956 0.8518,-2.11099 0.83699,-0.86661 2.05173,-0.86661 1.22956,0 2.04432,0.86661 0.86661,0.87403 0.86661,2.11099 0,1.20733 -0.86661,2.10357 z"
         style="font-size:15.16944408px;line-height:0.25;letter-spacing:-1.13241673px;stroke-width:0.26458332"
         id="path59"
         inkscape:connector-curvature="0" />
      <path
         d="m 135.41931,146.37115 h -2.47392 v 1.23696 h 1.25177 v 5.79965 h -1.25177 v 1.23696 h 3.71088 v -1.23696 h -1.23696 v -2.74798 q 0,-1.20734 0.75551,-2.22209 0.74069,-0.84439 1.82952,-0.84439 h 1.03697 v -1.22215 h -1.03697 q -1.51843,0 -2.58503,1.25918 z"
         style="font-size:15.16944408px;line-height:0.25;letter-spacing:-1.13241673px;stroke-width:0.26458332"
         id="path61"
         inkscape:connector-curvature="0" />
      <path
         d="m 143.54558,153.42998 v 1.21474 h 2.84427 v -1.23696 h -1.02215 l -3.05908,-2.89612 2.83687,-2.90353 h 0.87402 v -1.23696 h -2.99241 v 1.23696 h 0.637 l -2.4443,2.47392 v -6.57737 h -2.47392 v 1.25918 h 1.25177 v 8.64392 h -1.25177 v 1.23696 h 3.65163 v -1.23696 h -1.17771 v -2.47393 l 2.62206,2.49615 z"
         style="font-size:15.16944408px;line-height:0.25;letter-spacing:-1.13241673px;stroke-width:0.26458332"
         id="path63"
         inkscape:connector-curvature="0" />
      <path
         d="m 152.66439,152.50411 q -0.24443,0.34812 -0.66662,0.59996 -0.70366,0.4222 -1.54806,0.4222 -1.04438,0 -1.85174,-0.66663 -0.77773,-0.66662 -0.99253,-1.67397 h 6.99217 v -0.62959 q 0,-1.74804 -1.21474,-2.99241 -1.20734,-1.23696 -2.93316,-1.23696 -1.72582,0 -2.94056,1.23696 -1.21474,1.24437 -1.21474,2.99241 0,1.74063 1.21474,2.99241 1.23696,1.23696 2.94056,1.23696 1.18512,0 2.15543,-0.60737 0.99994,-0.61478 1.53324,-1.67397 z m -5.05895,-2.57762 q 0.22221,-1.02216 0.99253,-1.68138 0.80736,-0.66663 1.85174,-0.66663 1.03698,0 1.84434,0.66663 0.79995,0.68885 0.99253,1.68138 z"
         style="font-size:15.16944408px;line-height:0.25;letter-spacing:-1.13241673px;stroke-width:0.26458332"
         id="path65"
         inkscape:connector-curvature="0" />
      <path
         d="m 156.68722,143.51206 -1.21474,1.05179 v 1.8073 h -0.97772 v 1.07401 h 0.97772 v 4.83674 q 0,1.14808 0.14814,1.53324 0.33331,0.82958 1.39991,0.82958 0.44442,0 0.83699,-0.0889 v -1.25918 q -0.51849,0.0741 -0.55552,0.0741 h -0.0593 q -0.36294,-0.0222 -0.47405,-0.33331 -0.0815,-0.11851 -0.0815,-0.68144 v -4.91081 h 1.19992 v -1.07401 h -1.19992 z"
         style="font-size:15.16944408px;line-height:0.25;letter-spacing:-1.13241673px;stroke-width:0.26458332"
         id="path67"
         inkscape:connector-curvature="0" />
    </g>
    <path
       style="stroke-width:0.73059458"
       d="m 318.41016,500.37695 v 84.01758 h 51.08593 c 2.56373,-4.95618 5.09752,-10.74916 7.60157,-17.40625 2.28125,-8.25 3.42187,-16.46875 3.42187,-24.65625 0,-8.25 -1.14062,-16.45312 -3.42187,-24.60937 -2.60726,-6.84022 -5.12222,-12.61304 -7.54883,-17.34571 z m 56.96875,0 c 2.91282,3.90702 5.44089,8.43581 7.57812,13.59571 3.5,8.90625 5.25,18.35937 5.25,28.35937 0,10 -1.75,19.45313 -5.25,28.35938 -2.15338,5.24698 -4.7081,9.81019 -7.65625,13.70312 h 27.12695 v -84.01758 z m -33.67969,15.65821 h 10.67773 v 10.67773 h -10.67773 z m 0,35.0039 h 10.67773 v 10.67774 l -5.66406,14.45312 h -4.55664 l 3.25391,-14.45312 h -3.71094 z"
       transform="scale(0.26458333)"
       id="rect22"
       inkscape:connector-curvature="0"
       sodipodi:nodetypes="ccccscccccscccccccccccccccccc" />
    <g
       aria-label=";"
       style="font-style:normal;font-variant:normal;font-weight:normal;font-stretch:normal;font-size:10.58333302px;line-height:1.25;font-family:'Typo GeoSlab Regular Demo';-inkscape-font-specification:'Typo GeoSlab Regular Demo';letter-spacing:0px;word-spacing:0px;fill:#000000;fill-opacity:1;stroke:none;stroke-width:0.26458332"
       id="text76" />
  </g>
</svg>
